PathFileType	4	(X/Y/Z)	47_1_40_p0_0-233.trc
DataRate	CameraRate	NumFrames	NumMarkers	Units	OrigDataRate	OrigDataStartFrame	OrigNumFrames
41.0	41.0	7	27	m	41.0	58	234
Frame#	Time	RHip			RKnee			RAnkle			RBigToe			RSmallToe			RHeel			LHip			LKnee			LAnkle			LBigToe			LSmallToe			LHeel			Neck			Head			Nose			RShoulder			RElbow			RWrist			RThumb			RIndex			RPinky			LShoulder			LElbow			LWrist			LThumb			LIndex			LPinky			
		X1	Y1	Z1	X2	Y2	Z2	X3	Y3	Z3	X4	Y4	Z4	X5	Y5	Z5	X6	Y6	Z6	X7	Y7	Z7	X8	Y8	Z8	X9	Y9	Z9	X10	Y10	Z10	X11	Y11	Z11	X12	Y12	Z12	X13	Y13	Z13	X14	Y14	Z14	X15	Y15	Z15	X16	Y16	Z16	X17	Y17	Z17	X18	Y18	Z18	X19	Y19	Z19	X20	Y20	Z20	X21	Y21	Z21	X22	Y22	Z22	X23	Y23	Z23	X24	Y24	Z24	X25	Y25	Z25	X26	Y26	Z26	X27	Y27	Z27	
58	1.4146341463414633	0.38886682511342496	0.2908390048012902	-0.14352758703640137	0.34589276476314973	0.5728751753466692	0.22792438716438373	0.3179496680202489	0.8375851561118767	0.5702939595925121	0.34945215810366653	0.714173289952304	0.6488079487757419	0.40016329343789964	0.7497756219091914	0.6409187115323778	0.2657513745610527	0.9798034600690667	0.6200999088471274	0.2136817703399992	0.23974778714795536	-0.11839344299283507	0.14534269718874315	0.5772693110626499	0.24039013598288556	0.1296821672947334	0.8163894205789193	0.6043415957143194	0.21108295345788392	0.6862467456953342	0.6550085317211448	0.14521641841803715	0.7034126787854528	0.6625414637625046	0.1300626716942844	0.8852787941115617	0.6310388979948348	0.24336679871446856	0.07002599500057627	-0.6535769166632265	0.25190823851465916	-0.06256491300276212	-0.8490578785959761	0.2979740705068981	-0.08786640235987313	-0.7081068965446028	0.39420872359857195	0.16475797681562654	-0.5905149283327624	0.44671187193304945	0.24121212943591497	-0.36950956178782224	0.3283292069719101	0.10215370808612556	-0.4397462017508868	0.3147304478913499	0.120831539232983	-0.5535204548366883	0.2932975653877484	0.05329957569952248	-0.5146734476801746	0.28122028090169787	0.05435129049539734	-0.4890609620235087	0.12928539899504743	0.07608079614904492	-0.5394826619941172	0.14593473107156976	0.16793017896258358	-0.29293245331919177	0.23603154323484624	0.08241924496752541	-0.4349646326624566	0.23148910625030233	0.09964128344954994	-0.5355451061122316	0.25883179519289906	0.07277407870878985	-0.5412199742677899	0.2853036138478882	0.05792610040402781	-0.49131976029714863
59	1.4390243902439024	0.3807808319568661	0.3029789793109401	-0.14584614834923396	0.34617649440442444	0.5761964730709871	0.2312831714019764	0.317849053096954	0.8373447063893278	0.5702233242665995	0.34961844292107574	0.7179802200740169	0.6521606971318594	0.4001460213785159	0.749878486585242	0.6407491181023354	0.264843738129915	0.9790692866423812	0.6159034778457875	0.2137356014010138	0.24240189494650585	-0.11553820756616232	0.14546606570797505	0.5806257554417185	0.24411671042136882	0.12974208457339528	0.816306970739448	0.604330383855661	0.21119228106422855	0.6861548496926057	0.6550084302984459	0.14412680925532073	0.7052998682134991	0.6663759380372559	0.1294965698535817	0.8839122754866033	0.627034121418444	0.24330596567935572	0.07064044282068602	-0.6532871798805838	0.24406627114657156	-0.053772369935150305	-0.8539034876688386	0.29799441856854825	-0.08803101268116838	-0.7080304117600935	0.39402401702001466	0.16499362497883877	-0.5906227511412082	0.4466340547565265	0.23871040173241556	-0.3758447800008304	0.3282341813737649	0.10202888193334604	-0.4398253177353564	0.31455077674774784	0.12076363684119244	-0.5535346756830649	0.2925702062293017	0.05161137301929001	-0.5205065794808986	0.28750033808510694	0.045961215019330884	-0.4874719745661129	0.12690937792583898	0.07152897001957055	-0.5377752486787392	0.14592181330428927	0.1683422231960527	-0.29303146862820156	0.23591379818607033	0.08200112617923033	-0.4348507329092358	0.22502169558393365	0.1073636141934558	-0.5386087759110519	0.25845094122276835	0.07311492150583854	-0.5411870149843432	0.2857367400452779	0.05691412272200993	-0.4921091767659608
60	1.4634146341463414	0.38038957133885004	0.3146907728854656	-0.1488400755592054	0.34363478183523355	0.5733049260302392	0.23551634420686043	0.31678081985657464	0.8397380457189457	0.5743171767410107	0.34965279939451516	0.717911715561121	0.6519805574713342	0.40084339753526066	0.7355813668943971	0.6404023980670035	0.2647028870275544	0.9789174487061403	0.6156740579619946	0.21355418852452357	0.24023040430383155	-0.11846968416353189	0.14530274951547095	0.5774396314829581	0.24054522216302154	0.130082681605188	0.8160427441202935	0.6043950038381862	0.21129934062482303	0.689650514082356	0.6585743489991983	0.14342592404018378	0.7046813935904707	0.6622900831367405	0.1298327241736602	0.883482042365141	0.626950072542832	0.24318861731416752	0.0705096915988993	-0.6532478614480002	0.24928485588378796	-0.07638765934687812	-0.8452221271520073	0.2978977909392066	-0.08804575852928632	-0.7079122911882265	0.3940480195427811	0.16364840269911396	-0.5936924586617055	0.4463340253861965	0.24020443391232296	-0.37260474019779477	0.32835050313389436	0.10207073398670713	-0.4397460508220588	0.3210504620776399	0.11367955712060743	-0.5451185983466689	0.30088498284416754	0.03318487049509352	-0.5140818505020814	0.29662330317705776	0.03136935394583053	-0.48889459329713203	0.12661642837289697	0.0701799935372805	-0.540780583040252	0.1463077139478224	0.17281193293811511	-0.2868400120458807	0.2363004461678565	0.0830492786291299	-0.43130931997355926	0.23272148711999757	0.09801403868170103	-0.5355024412505501	0.25852500586527144	0.07112501907574602	-0.5451591509240489	0.2884047970746777	0.054081319582057474	-0.4900603089532385
61	1.4878048780487805	0.380399125287798	0.31477365462803647	-0.1488121683679284	0.34327330842526893	0.5698577633532931	0.2321539920188681	0.3167914618872846	0.8396489704193135	0.5743532182545447	0.34966413667169977	0.7178875055650539	0.6520143392416922	0.4008121078894767	0.7355692291144792	0.6404356311478943	0.26469547160136464	0.9795440891957109	0.6155602889931399	0.21360117445826418	0.24010561200302796	-0.11843707993234208	0.1455608658914296	0.5791596008046795	0.244608692621285	0.13002070481821407	0.8162568421413284	0.6044498474030582	0.210181944322621	0.6915119205342816	0.6626751514857075	0.14335836468435617	0.7047578462193389	0.6622900341113037	0.12978964916212066	0.8835382732771071	0.6269376928222682	0.23988731663981439	0.06792688576576057	-0.6519558689454072	0.24946581886727778	-0.07556615021559333	-0.8422727142931408	0.2980065165759869	-0.08919583314197141	-0.7078235335905201	0.39399754025877215	0.16370920952599682	-0.5937394179586482	0.44633057065398907	0.24029358198311024	-0.37268151943575484	0.328388717678378	0.10224368822405626	-0.4398284478792326	0.321131581761483	0.11368586554170934	-0.5449853334610014	0.3061072727914239	0.03342965957083193	-0.5145525136724405	0.29657330380022773	0.032023411574529675	-0.48738242457019554	0.1265610513934469	0.07011172771550031	-0.5407551492271218	0.14630693853071594	0.17018304330739603	-0.2896181657007539	0.23597471548937046	0.08187101129480336	-0.43491910597401895	0.22822717184531738	0.09726620986473587	-0.5352167968295777	0.25816486835981783	0.06978895071927199	-0.5488439109439613	0.2890710348770964	0.05336502177782943	-0.48927296440862805
62	1.5121951219512195	0.38043018420295366	0.3146941795153752	-0.14868816661125078	0.34323926573264674	0.5695565616906706	0.23215019514184518	0.3175519162650146	0.8237710282309794	0.5743772884912788	0.35823198607946605	0.7020492059821534	0.6501301179724538	0.40082457656674925	0.7356131686011934	0.640364449963391	0.26467639352163486	0.9791573672697128	0.6158846721036404	0.21371195700844198	0.23986375543378574	-0.1184298918188039	0.1491869259392975	0.5854168067148777	0.24740263070552318	0.13338399210315172	0.8196762921040522	0.6038345475464413	0.21033106438968013	0.6911219149329452	0.6626273149954455	0.14343853212037821	0.7047557754449141	0.6622636940873369	0.12951661218916974	0.883745004812793	0.6276251855456767	0.23969334403639964	0.06809751217198756	-0.6521349995614009	0.24128601098439087	-0.06755012227390401	-0.8501414662124236	0.29050159087641153	-0.08040318851334692	-0.7148967295966107	0.394027270265484	0.1637032423990502	-0.593702861680174	0.4464118907511597	0.24026246747549476	-0.3725874235570086	0.32829144992488496	0.10212872344696512	-0.4399978311645233	0.3207391229142555	0.11197475649741691	-0.5501076821802979	0.29856550077839045	0.04172115268613477	-0.520271238670115	0.2894886870217751	0.04086633078644573	-0.49060952387609874	0.12669815292965667	0.07149896626816124	-0.5376241148885201	0.1463774889428529	0.17026987219213235	-0.2895486164580217	0.23611421324641782	0.08316483375535286	-0.4315189406367034	0.2209040581438865	0.10683944492034787	-0.5367343701347048	0.25057594177624437	0.07942813752679675	-0.5522216891345622	0.28872969075247673	0.05366376181238	-0.48935523289620353
63	1.5365853658536586	0.3839994491829	0.32043218109411514	-0.14653801305511932	0.3437008861101445	0.5600705734109537	0.2369696252431691	0.31663299444498066	0.8396529091985759	0.5744388465498731	0.3497167488598169	0.7174108549081314	0.651748997906426	0.4007200084768801	0.7359073874104586	0.6404422238951631	0.26554761683462397	0.9793611407010313	0.6202891416811247	0.2138153612229472	0.24241651363957772	-0.11567011823358933	0.14735754089679776	0.5675338669918908	0.24968094336882912	0.13000872667176736	0.8164257500897976	0.6044890035446756	0.21012459258623656	0.6872728689178146	0.6591148910918172	0.14335014998071688	0.704830540794961	0.6623341348674854	0.13023749541185872	0.8846329369989209	0.6314814262180601	0.23980430244735707	0.06564965189881355	-0.6550067442025881	0.24105977767830963	-0.06754383648715716	-0.8501460034020427	0.2902262299131556	-0.07896583755413694	-0.7122612411555405	0.3939969378331208	0.16376969731765	-0.5937889416995854	0.4465389598058957	0.240238250705232	-0.37253368856588964	0.32815663824864993	0.10220448183109564	-0.44007613825647973	0.320703097990783	0.11155178764442095	-0.5520422409721871	0.2971440797563625	0.05238224340447569	-0.5273163568362851	0.29092734726559627	0.037791464014359476	-0.49404545626422225	0.1265468627722029	0.0727864083106575	-0.534257102544204	0.1463321382497812	0.16995613008537236	-0.28948523138376764	0.23591850209650272	0.08215843039789572	-0.4351135144676213	0.22131921528433912	0.10423943387772512	-0.5420769093803076	0.25034154776259426	0.08008680050020724	-0.5519643860559248	0.28981813209535484	0.05213474704823842	-0.49077696508791047
64	1.5609756097560976	0.38389099294423684	0.3177074571257739	-0.1497477803712764	0.3440469613949384	0.5632709554039613	0.24050037115503886	0.3175139334007797	0.8240514278292488	0.5744570439451477	0.35837123234107404	0.7016774453114147	0.6498714878513943	0.4094057978574697	0.7200051591416167	0.638401407048839	0.2655227891185465	0.9789856175220947	0.6204209066187092	0.213222270910814	0.2539786102093848	-0.11842609791545929	0.16050284287493263	0.5604254066621432	0.25289176520431583	0.13353864169980134	0.8242920623667256	0.6083068713270395	0.21013948544062896	0.6914880650774378	0.662739419958045	0.14334149450059225	0.7047755759864311	0.6624491260758549	0.1301467106641805	0.8847877311683269	0.6314218416071238	0.24053723171201616	0.05715828892735666	-0.6473383017558982	0.23771495615143587	-0.06968602591696642	-0.8488623743585455	0.2826114508992965	-0.07014882335954861	-0.7163933508649015	0.3942776489368515	0.16517343325986636	-0.5903570646919114	0.443191131871701	0.2344939262872552	-0.37826511450035777	0.3280073146790246	0.10235032885738056	-0.44021471478610197	0.32019731991309847	0.1099118462243727	-0.5569360496529634	0.2847895590239106	0.061298503359164265	-0.530299278238897	0.2851314492847656	0.038658600838309805	-0.49387582338090963	0.1265953962721611	0.07278196994579049	-0.5340924377423716	0.14639897274885325	0.17270467946037707	-0.2867020914939959	0.23601835237121774	0.08208013837020152	-0.4351640317981121	0.22101047782108116	0.1047398336968283	-0.5424153105318964	0.25035149060354883	0.07724713459767558	-0.5553826337572914	0.28909812086014336	0.05293091143011333	-0.4915056841306409
